<svg xmlns="http://www.w3.org/2000/svg" viewBox="0 0 1042 1595" width="1042" height="1595"><rect width="100%" height="100%" fill="#0b1722"/><path d="M318,40 L303,43 L40,196 L278,627 L310,815 L305,878 L246,1004 L210,1253 L172,1307 L216,1368 L201,1388 L232,1442 L172,1540 L193,1555 L230,1471 L268,1439 L642,1353 L617,1055 L635,919 L662,894 L742,874 L737,791 L847,790 L938,815 L986,722 L947,702 L857,696 L856,533 L1002,520 L986,475 L860,477 L878,388 L777,383 L722,407 L712,440 L682,459 L433,515 L382,335 L335,67 Z" fill="none" stroke="#ffd45e" stroke-width="3"/><circle cx="318" cy="40" r="3" fill="red"/><circle cx="303" cy="43" r="3" fill="red"/><circle cx="40" cy="196" r="3" fill="red"/><circle cx="278" cy="627" r="3" fill="red"/><circle cx="310" cy="815" r="3" fill="red"/><circle cx="305" cy="878" r="3" fill="red"/><circle cx="246" cy="1004" r="3" fill="red"/><circle cx="210" cy="1253" r="3" fill="red"/><circle cx="172" cy="1307" r="3" fill="red"/><circle cx="216" cy="1368" r="3" fill="red"/><circle cx="201" cy="1388" r="3" fill="red"/><circle cx="232" cy="1442" r="3" fill="red"/><circle cx="172" cy="1540" r="3" fill="red"/><circle cx="193" cy="1555" r="3" fill="red"/><circle cx="230" cy="1471" r="3" fill="red"/><circle cx="268" cy="1439" r="3" fill="red"/><circle cx="642" cy="1353" r="3" fill="red"/><circle cx="617" cy="1055" r="3" fill="red"/><circle cx="635" cy="919" r="3" fill="red"/><circle cx="662" cy="894" r="3" fill="red"/><circle cx="742" cy="874" r="3" fill="red"/><circle cx="737" cy="791" r="3" fill="red"/><circle cx="847" cy="790" r="3" fill="red"/><circle cx="938" cy="815" r="3" fill="red"/><circle cx="986" cy="722" r="3" fill="red"/><circle cx="947" cy="702" r="3" fill="red"/><circle cx="857" cy="696" r="3" fill="red"/><circle cx="856" cy="533" r="3" fill="red"/><circle cx="1002" cy="520" r="3" fill="red"/><circle cx="986" cy="475" r="3" fill="red"/><circle cx="860" cy="477" r="3" fill="red"/><circle cx="878" cy="388" r="3" fill="red"/><circle cx="777" cy="383" r="3" fill="red"/><circle cx="722" cy="407" r="3" fill="red"/><circle cx="712" cy="440" r="3" fill="red"/><circle cx="682" cy="459" r="3" fill="red"/><circle cx="433" cy="515" r="3" fill="red"/><circle cx="382" cy="335" r="3" fill="red"/><circle cx="335" cy="67" r="3" fill="red"/><circle cx="318" cy="40" r="6" fill="#39d98a"/></svg>